# xmcd
#
# Track frame offsets:
#	150
#	16186
#	38127
#	63248
#	84350
#	97524
#	120534
#	139589
#	159706
#	177901
#
# Disc length: 2810 seconds
#
# Revision: 1
# Processed by: cddbd v1.5.1PL0 Copyright (c) Steve Scherf et al.
# Submitted via: CDex 1.50Beta5
#
DISCID=6c0af80a
DTITLE=castaway - 風のある場所
DYEAR=1900
DGENRE=Pop
TTITLE0=風
TTITLE1=君のために
TTITLE2=大切な人
TTITLE3=pain
TTITLE4=H2
TTITLE5=one
TTITLE6=ギターを片手に
TTITLE7=線香花火
TTITLE8=この想いをあなたに
TTITLE9=It's my only way
EXTD=
EXTT0=
EXTT1=
EXTT2=
EXTT3=
EXTT4=
EXTT5=
EXTT6=
EXTT7=
EXTT8=
EXTT9=
PLAYORDER=
